<svg width="344" height="345" viewBox="0 0 344 345" fill="none" xmlns="http://www.w3.org/2000/svg">
<path d="M153.382 14.6735C152.955 5.00188 157.704 0.371484 165.613 0.0222526C168.613 -0.109223 172.984 0.334506 175.088 1.55065L175.236 12.9356C172.331 12.0358 164.722 11.0991 164.857 14.1723C164.997 17.3154 172.126 15.409 175.306 14.4886L176.152 25.6641C174.229 27.0199 169.845 27.817 166.846 27.9484C158.551 28.3141 153.789 23.8563 153.386 14.6776L153.382 14.6735Z" fill="#F0ECD9"/>
<path d="M178.223 13.6177C179.378 4.00353 184.817 0.211291 192.673 1.15216C200.529 2.09303 204.917 7.07266 203.762 16.6827C202.657 25.8736 197.48 29.8795 189.341 28.9017C181.095 27.9115 177.126 22.7388 178.223 13.6177ZM190.504 19.2588C191.379 19.3656 192.044 17.9851 192.373 15.2488C192.726 12.3029 192.361 10.906 191.519 10.8033C190.676 10.7006 189.99 11.9742 189.637 14.9201C189.308 17.6564 189.629 19.152 190.504 19.2588Z" fill="#F0ECD9"/>
<path d="M230.094 24.3248L228.956 23.9386L222.994 36.2768L214.736 33.4583L217.554 20.0478L216.416 19.6616L212.727 32.7762L202.529 29.3004L211.083 4.22144L225.394 9.10246L222.575 22.5129L223.479 22.8211L229.441 10.4829L243.755 15.364L235.201 40.4429L225.003 36.9629L230.098 24.3289L230.094 24.3248Z" fill="#F0ECD9"/>
<path d="M249.035 18.5522L265.852 28.2197L261.801 35.266L254.631 31.1451L253.838 32.5215L259.475 35.7631L255.954 41.8891L250.317 38.6474L249.524 40.0238L256.694 44.1447L252.643 51.191L235.826 41.5234L249.035 18.5481V18.5522Z" fill="#F0ECD9"/>
<path d="M270.054 30.8657L279.8 38.7049C285.967 43.664 286.912 49.8187 281.176 56.9512C275.683 63.7797 269.582 64.4905 263.193 59.3548L253.447 51.5156L270.054 30.8657ZM272.552 49.9214C274.303 47.748 274.685 46.4209 272.951 45.0281L267.901 51.306C269.664 52.7235 270.913 51.9593 272.552 49.9214Z" fill="#F0ECD9"/>
<path d="M281.682 64.6137L290.047 47.0083L297.796 55.4802L292.13 61.9554L292.751 62.6333L299.702 57.5674L307.451 66.0394L289.271 72.7528L282.96 78.5213L275.449 70.3082L281.682 64.6096V64.6137Z" fill="#F0ECD9"/>
<path d="M303.814 83.8954C312.216 79.0883 318.507 81.1878 322.439 88.0574C323.93 90.6623 325.536 94.7503 325.417 97.1826L316.288 101.998C315.758 99.0027 312.8 91.9852 309.517 93.8629C307.738 94.8818 308.013 96.4307 309.086 98.0167L311.045 96.8128L314.554 102.947L314.02 103.292L304.472 109.163C302.384 108.079 299.669 104.541 298.177 101.936C294.052 94.7298 295.839 88.4559 303.814 83.8954Z" fill="#F0ECD9"/>
<path d="M316.141 105.523C325.225 102.17 331.08 105.285 333.82 112.709C336.561 120.133 334.128 126.304 325.044 129.657C316.359 132.862 310.434 130.076 307.595 122.385C304.719 114.595 307.517 108.703 316.137 105.523H316.141ZM316.712 119.02C317.016 119.85 318.548 119.813 321.133 118.855C323.918 117.828 324.995 116.867 324.699 116.07C324.407 115.273 322.961 115.24 320.175 116.271C317.591 117.224 316.404 118.19 316.708 119.02H316.712Z" fill="#F0ECD9"/>
<path d="M338.619 129.583L340.78 140.504L322.756 144.07L324.362 152.18L316.391 153.758L312.628 134.727L338.623 129.583H338.619Z" fill="#F0ECD9"/>
<path d="M343.134 153.553L343.615 166.051C343.919 173.96 339.897 178.714 330.751 179.063C321.995 179.4 317.451 175.263 317.135 167.07L316.654 154.572L343.134 153.553ZM330.393 167.941C333.183 167.834 334.432 167.255 334.346 165.032L326.297 165.34C326.383 167.6 327.78 168.04 330.393 167.941Z" fill="#F0ECD9"/>
<path d="M330.532 216.217L330.15 211.459L325.787 213.633L323.691 208.924L328.223 207.117L324.895 203.546L328.798 200.185L331.814 204.015L334.193 199.877L338.532 202.334L335.713 206.336L340.578 207.248L339.448 212.281L334.661 211.024L335.5 215.847L330.528 216.217H330.532Z" fill="#D64B4B"/>
<path d="M318.186 234.451C326.798 238.872 328.47 245.29 324.855 252.332C323.482 255.002 320.931 258.581 318.832 259.805L308.872 254.296C311.091 252.217 315.676 246.07 312.94 244.669C310.142 243.231 308.264 250.372 307.488 253.589L297.36 248.786C297.134 246.444 298.613 242.241 299.985 239.57C303.778 232.183 310.01 230.26 318.182 234.455L318.186 234.451Z" fill="#F0ECD9"/>
<path d="M306.782 256.568C314.551 262.344 315.139 268.951 310.418 275.303C305.697 281.655 299.197 282.986 291.428 277.205C283.999 271.679 283.1 265.196 287.993 258.618C292.948 251.954 299.411 251.083 306.782 256.564V256.568ZM295.791 264.419C295.265 265.13 296.132 266.391 298.343 268.035C300.726 269.806 302.118 270.184 302.624 269.502C303.129 268.82 302.369 267.595 299.986 265.824C297.776 264.181 296.317 263.713 295.791 264.419Z" fill="#F0ECD9"/>
<path d="M271.751 296.282L272.65 295.485L264.881 284.194L271.418 278.413L281.673 287.502L282.573 286.704L273.004 277.004L281.077 269.863L298.633 289.716L287.306 299.737L277.051 290.649L276.336 291.281L284.105 302.572L272.778 312.593L255.222 292.74L263.295 285.599L271.751 296.282Z" fill="#F0ECD9"/>
<path d="M267.434 315.58L250.724 325.432L246.599 318.431L253.719 314.232L252.914 312.864L247.314 316.167L243.727 310.078L249.327 306.775L248.522 305.407L241.401 309.606L237.276 302.605L253.986 292.756L267.442 315.584L267.434 315.58Z" fill="#F0ECD9"/>
<path d="M246.331 327.794L234.7 332.392C227.337 335.301 221.519 333.078 218.159 324.565C214.937 316.414 217.337 310.756 224.962 307.745L236.598 303.147L246.335 327.794H246.331ZM228.537 320.539C229.564 323.135 230.521 324.121 232.592 323.304L229.63 315.81C227.526 316.64 227.571 318.102 228.533 320.535L228.537 320.539Z" fill="#F0ECD9"/>
<path d="M211.231 321.2L222.365 337.203L211.161 339.722L208.355 331.587L207.459 331.788L208.404 340.342L197.2 342.861L200.397 323.743L198.519 315.399L209.378 312.954L211.231 321.192V321.2Z" fill="#F0ECD9"/>
<path d="M183.807 330.642C183.963 340.322 179.09 344.816 171.177 344.944C168.174 344.993 163.819 344.426 161.748 343.152L161.933 332.832C164.809 333.81 172.385 334.607 172.323 330.827C172.291 328.776 170.799 328.271 168.893 328.444L169 330.74L161.933 330.855L161.888 330.219L161.354 319.027C163.309 317.724 167.718 317.051 170.721 317.001C179.025 316.866 183.655 321.455 183.803 330.642H183.807Z" fill="#F0ECD9"/>
<path d="M158.641 330.802C157.063 340.354 151.463 343.908 143.652 342.618C135.842 341.328 131.68 336.164 133.258 326.611C134.766 317.478 140.115 313.706 148.205 315.041C156.397 316.393 160.136 321.738 158.641 330.802ZM146.623 324.627C145.752 324.483 145.029 325.83 144.577 328.55C144.092 331.48 144.396 332.889 145.234 333.029C146.072 333.168 146.812 331.928 147.297 328.998C147.745 326.278 147.494 324.77 146.623 324.627Z" fill="#F0ECD9"/>
<path d="M126.61 338.448L116.051 334.927L121.861 317.494L114.018 314.881L116.585 307.169L134.988 313.304L126.61 338.444V338.448Z" fill="#F0ECD9"/>
<path d="M103.504 330.514L92.4069 324.742C85.3853 321.089 83.253 315.238 87.4766 307.12C91.5236 299.346 97.3701 297.448 104.642 301.232L115.74 307.005L103.504 330.514ZM97.3208 312.317C96.0307 314.795 95.9157 316.167 97.8878 317.194L101.606 310.045C99.6011 309.002 98.5246 309.996 97.3167 312.313L97.3208 312.317Z" fill="#F0ECD9"/>
<path d="M55.3507 288.471L59.6689 290.501L59.9483 285.636L65.0758 286.154L64.3938 290.985L69.1433 289.868L70.1212 294.926L65.3018 295.645L67.7135 299.761L63.4283 302.309L61.3534 297.876L58.1487 301.647L54.34 298.167L57.8077 294.634L53.2061 292.966L55.3549 288.467L55.3507 288.471Z" fill="#D64B4B"/>
<path d="M45.6378 268.733C37.5397 274.041 31.1344 272.324 26.7957 265.701C25.1481 263.191 23.2993 259.205 23.2705 256.773L32.9791 250.832C33.6899 253.786 36.7714 260.808 39.3434 259.123C41.9729 257.397 36.6933 252.241 34.2816 249.977L43.4561 243.543C45.6049 244.501 48.5261 247.865 50.1736 250.38C54.726 257.323 53.3208 263.692 45.6378 268.729V268.733Z" fill="#F0ECD9"/>
<path d="M32.039 247.89C23.1768 251.785 17.1453 249.036 13.957 241.789C10.7729 234.545 12.8231 228.239 21.6853 224.344C30.1573 220.617 36.2421 223.041 39.5413 230.544C42.8816 238.145 40.4493 244.192 32.039 247.89ZM30.6462 234.455C30.2887 233.646 28.7645 233.777 26.2418 234.886C23.526 236.082 22.5112 237.105 22.8522 237.882C23.1932 238.658 24.6353 238.601 27.3511 237.409C29.8738 236.3 30.9995 235.264 30.6462 234.455Z" fill="#F0ECD9"/>
<path d="M14.8816 197.777L15.124 198.953L28.781 197.814L30.5559 206.36L17.5727 210.748L17.8151 211.923L30.9873 208.431L33.1772 218.986L7.22725 224.368L4.15402 209.561L17.1372 205.173L16.9441 204.24L3.2871 205.378L0.213867 190.571L26.1638 185.189L28.3537 195.74L14.8816 197.777Z" fill="#F0ECD9"/>
<path d="M0.312254 184.556L0 165.159L8.12682 165.028L8.2624 173.294L9.85243 173.27L9.74972 166.77L16.8165 166.655L16.9233 173.155L18.5134 173.13L18.3778 164.863L26.5046 164.732L26.8169 184.129L0.320471 184.556H0.312254Z" fill="#F0ECD9"/>
<path d="M0.143555 160.094L1.90204 147.71C3.01547 139.875 7.82664 135.919 16.8861 137.204C25.5635 138.437 29.2941 143.322 28.1396 151.437L26.3811 163.82L0.143555 160.094ZM15.2509 148.216C12.4858 147.821 11.1546 148.166 10.8383 150.373L18.8131 151.507C19.1294 149.267 17.8352 148.585 15.2468 148.216H15.2509Z" fill="#F0ECD9"/>
<path d="M23.2305 132.862L3.81738 134.629L7.1659 123.646L15.6214 125.228L15.8885 124.349L7.98762 120.943L11.3361 109.96L26.3736 122.188L34.5538 124.682L31.3081 135.327L23.2305 132.866V132.862Z" fill="#F0ECD9"/>
<path d="M28.5712 103.995C20.1608 99.1957 18.7762 92.7124 22.7 85.8387C24.1873 83.2297 26.8948 79.7702 29.0436 78.6404L37.8278 84.0596C35.5188 86.0359 30.9747 92.1495 34.2575 94.023C36.0365 95.0378 37.2321 94.0107 38.0579 92.2851L36.0283 91.2086L39.5288 85.0704L40.0999 85.3538L50.0016 90.5964C50.1249 92.9465 48.4568 97.0798 46.9695 99.6888C42.8527 106.899 36.5459 108.547 28.567 103.995H28.5712Z" fill="#F0ECD9"/>
<path d="M40.9422 82.408C33.4358 76.2944 33.1359 69.6672 38.136 63.529C43.1362 57.3907 49.6853 56.3471 57.1917 62.4607C64.3695 68.3073 64.9858 74.8276 59.8089 81.1837C54.5622 87.6218 48.0665 88.2094 40.9463 82.408H40.9422ZM52.2696 75.0454C52.8284 74.3593 52.0149 73.0609 49.8784 71.323C47.5776 69.4495 46.2012 69.0099 45.6671 69.6672C45.133 70.3246 45.8397 71.586 48.1405 73.4595C50.277 75.2015 51.715 75.7315 52.2696 75.0454Z" fill="#F0ECD9"/>
<path d="M50.1865 50.8416L58.4736 43.4092L70.7419 57.0867L76.8966 51.5648L82.324 57.6167L67.8823 70.5671L50.1906 50.8375L50.1865 50.8416Z" fill="#F0ECD9"/>
<path d="M68.4902 34.7111L78.9918 27.9154C85.6354 23.6137 91.7778 24.6491 96.7492 32.3322C101.511 39.6907 100.27 45.7098 93.3884 50.1635L82.8868 56.9592L68.4902 34.7111ZM87.3693 38.3184C85.8532 35.9765 84.7151 35.1959 82.8498 36.4038L87.2255 43.1666C89.1236 41.9381 88.7908 40.5124 87.3693 38.3184Z" fill="#F0ECD9"/>
<path d="M128.862 13.626L124.959 16.3706L129.047 19.0247L126.06 23.2196L122.198 20.2326L120.814 24.9123L115.933 23.2566L117.695 18.7125L112.925 18.77L112.839 13.7862L117.72 14.1766L116.031 9.52562L120.941 7.9397L122.293 12.7016L126.019 9.52973L128.862 13.6219V13.626Z" fill="#D64B4B"/>
</svg>
