<svg width="189" height="177" viewBox="0 0 189 177" fill="none" xmlns="http://www.w3.org/2000/svg">
     <path vector-effect="non-scaling-stroke" d="M182.347 109.931C185.494 103.597 187.042 96.5603 187.081 89.4978H187.523C188.551 105.86 189.279 123.484 180.487 137.323C178.003 141.238 174.829 144.685 171.577 147.988C168.027 151.578 164.346 155.051 160.327 158.107C149.427 166.392 136.304 171.426 122.842 173.936C109.393 176.446 95.5932 176.498 81.9363 175.51C77.4881 175.198 73.0399 174.756 68.6306 174.001C42.4095 169.462 8.57946 152.918 2.21927 124.433C1.52992 121.325 1.50391 118.112 1.50391 114.926C1.50391 106.341 1.71201 97.7569 2.12822 89.1726H2.34933C2.59646 95.949 4.19626 102.738 7.0707 108.851C14.7966 125.318 30.2093 137.206 46.9617 144.307C52.4505 146.648 58.1344 148.534 63.9353 149.939C79.5821 153.776 95.9444 154.14 111.968 152.423C122.491 151.292 133.039 149.25 142.625 144.776C146.41 143.02 150 140.9 153.524 138.662C165.113 131.288 176.234 122.235 182.347 109.931Z" fill="#C5C1AE"/>
     <path vector-effect="non-scaling-stroke" d="M174.361 56.1621C182.737 65.0456 187.159 77.3107 187.081 89.4979C187.042 96.5604 185.495 103.597 182.347 109.931C176.234 122.235 165.113 131.288 153.525 138.663C150 140.9 146.41 143.02 142.625 144.776C133.039 149.25 122.491 151.292 111.969 152.423C95.9446 154.14 79.5824 153.776 63.9355 149.939C58.1346 148.535 52.4507 146.649 46.962 144.307C30.2095 137.206 14.7968 125.318 7.07092 108.852C4.19648 102.739 2.59667 95.9491 2.34955 89.1597C1.92033 77.6489 5.41909 66.1381 13.3531 57.892L14.2765 57.866C14.2765 57.866 14.2895 57.931 14.2895 57.97C14.7968 64.1611 14.3419 70.6701 14.4849 76.8872C14.654 84.7041 15.0309 92.5544 17.6973 100.02C20.6758 108.357 28.1545 114.548 34.8139 119.985C41.5773 125.487 48.952 129.428 57.2631 132.068C78.4638 138.793 101.472 137.986 123.206 133.343C128.383 132.237 133.52 130.911 138.372 128.791C141.767 127.308 144.992 125.435 148.088 123.367C159.013 116.057 173.516 103.545 174.4 89.4979C174.738 84.0481 174.582 78.5854 174.426 73.1356C174.27 67.5038 173.932 61.833 173.841 56.1751H174.361V56.1621Z" fill="#F0ECD9"/>
     <path vector-effect="non-scaling-stroke" d="M14.5312 59.5391C14.3971 57.885 13.7354 57.5947 13.3531 57.892C5.41909 66.1382 1.92033 77.649 2.34955 89.1598C2.59667 95.9492 4.19648 102.739 7.07092 108.852C14.7968 125.318 30.2095 137.206 46.962 144.307C52.4507 146.649 58.1346 148.535 63.9355 149.939C79.5824 153.776 95.9446 154.14 111.969 152.424C122.491 151.292 133.039 149.25 142.625 144.776C146.41 143.02 150 140.9 153.525 138.663C165.113 131.288 176.234 122.235 182.347 109.931C185.495 103.597 187.042 96.5605 187.081 89.4979C187.159 77.3108 182.737 65.0456 174.361 56.1622C173.772 55.5373 173.844 59.3747 173.844 62.9336" stroke="#282D35" stroke-miterlimit="10"/>
     <path vector-effect="non-scaling-stroke" d="M2.12822 89.1726C1.71201 97.7569 1.50391 106.341 1.50391 114.926C1.50391 118.112 1.52992 121.325 2.21927 124.433C8.57946 152.918 42.4095 169.462 68.6306 174.001C73.0399 174.756 77.4881 175.198 81.9363 175.51C95.5932 176.498 109.393 176.446 122.842 173.936C136.304 171.426 149.427 166.392 160.327 158.107C164.346 155.051 168.027 151.578 171.577 147.988C174.829 144.685 178.003 141.238 180.487 137.323C189.279 123.484 188.551 105.86 187.523 89.4978" stroke="#282D35" stroke-miterlimit="10"/>
     <path vector-effect="non-scaling-stroke" d="M14.5222 59.4309C14.5226 72.8019 13.1178 87.2001 17.6963 100.02C20.6748 108.357 28.1535 114.548 34.8129 119.985C41.5763 125.487 48.951 129.428 57.2622 132.068C78.4628 138.792 101.471 137.986 123.205 133.343C128.382 132.237 133.519 130.91 138.371 128.79C141.766 127.308 144.991 125.435 148.087 123.367C159.012 116.057 173.515 103.545 174.399 89.4975C174.737 84.0478 174.581 78.585 174.425 73.1353C174.269 67.5035 173.931 68.3786 173.84 62.7207" stroke="#282D35" stroke-miterlimit="10"/>
</svg>
