<svg width="52" height="56" viewBox="0 0 52 56" fill="none" xmlns="http://www.w3.org/2000/svg">
     <path vector-effect="non-scaling-stroke" d="M13.9875 0.823486C14.0115 0.870053 15.5884 4.87657 16.3103 7.05104C17.2369 9.82536 17.3877 13.0817 16.7413 16.1453C16.0098 19.6332 14.1758 23.0046 11.1925 25.0467C8.08949 27.1355 4.55552 28.4744 1.03232 29.7277C1.02155 29.7277 1.01077 29.7277 1 29.7277H1.04311C7.16827 30.4189 13.7245 31.87 17.8187 36.5939C21.9237 41.3391 22.4786 48.514 22.4786 52.7003C24.4889 47.3206 27.2743 41.5524 32.03 38.0614C34.0664 36.5617 36.3505 35.5869 38.7747 34.9335C42.9013 33.8088 47.4158 33.6696 51.7255 33.5839C48.0307 32.916 43.8752 32.0282 41.3175 29.0421C38.9579 26.2785 38.6131 22.2188 39.669 18.7482C39.7552 18.4697 39.8522 18.1912 39.9491 17.9234C41.0912 14.817 43.1815 12.1069 45.4225 9.62183C41.6958 13.7221 32.0503 13.0552 27.2139 11.7963C23.0239 10.7057 17.8259 8.2842 13.9875 0.823486Z" fill="white" stroke="#282D35" stroke-miterlimit="10"/>
</svg>
