<svg width="30" height="29" viewBox="0 0 30 29" fill="none" xmlns="http://www.w3.org/2000/svg">
     <path vector-effect="non-scaling-stroke" d="M7.94383 11.7828C5.76069 13.0601 3.0019 13.8973 0.649012 13.7832C0.678433 13.7846 3.07123 14.1429 4.33225 14.4026C5.9427 14.7311 7.56978 15.5726 8.879 16.748C10.0656 17.8106 10.9946 19.1509 11.4097 20.635C11.5399 21.0597 11.6175 21.503 11.6518 21.9492C11.7965 24.0462 11.4551 26.1422 11.0751 28.2088C11.0721 28.2141 11.0691 28.2193 11.0661 28.2246L11.0782 28.2036C12.5942 25.024 15.6837 22.6342 19.1329 21.969C22.5955 21.3045 26.3353 22.3871 28.8966 24.7887C27.4331 23.0139 25.9238 21.1498 24.9287 19.0932C24.3737 17.9478 23.9813 16.7495 23.8399 15.4654C23.6823 14.0531 23.8497 12.6677 24.2128 11.3044C24.8249 8.98017 26.0255 6.74412 27.1947 4.62274C27.1073 4.72605 27.0146 4.82635 26.9272 4.92967C25.5803 6.48005 24.0546 8.03908 22.0602 8.41165C20.0524 8.78345 17.9799 7.8106 16.5876 6.32165C16.4763 6.20146 16.368 6.07602 16.2649 5.95359C15.0741 4.52502 14.3425 2.74639 13.7628 0.957566C13.9684 1.60061 13.5981 2.81994 13.4553 3.46456C13.266 4.33404 12.9969 5.18539 12.6488 6.00508C12.6155 6.06276 12.6008 6.12422 12.5728 6.1849C11.8807 7.7568 10.9128 9.20442 9.70504 10.4296C9.19447 10.9528 8.59395 11.4031 7.93861 11.7797L7.94383 11.7828Z" fill="white" stroke="#282D35" stroke-miterlimit="10"/>
</svg>
