<svg width="188" height="177" viewBox="0 0 188 177" fill="none" xmlns="http://www.w3.org/2000/svg">
     <path vector-effect="non-scaling-stroke" d="M16.123 66.0988C20.9614 78.9232 30.3912 89.7577 41.7589 97.4185C53.1396 105.079 66.3672 109.697 79.881 112.077C87.841 113.469 95.9441 114.119 104.008 113.573C124.233 112.246 143.795 103.258 158.232 89.0293C162.381 84.9452 166.166 80.38 168.651 75.0993C170.433 71.3404 171.525 67.2824 172.331 63.1983C173.116 59.1848 173.357 52.4547 173.357 52.4547C173.448 58.1125 174.66 66.6702 174.426 73.1353C174.582 78.5851 174.738 84.0478 174.4 89.4975C173.515 103.545 159.013 116.057 148.087 123.367C144.992 125.435 141.766 127.308 138.371 128.79C133.52 130.91 128.382 132.237 123.206 133.343C101.472 137.986 78.4633 138.792 57.2627 132.068C48.9515 129.428 41.5768 125.487 34.8134 119.985C28.154 114.548 20.6753 108.357 17.6968 100.02C15.0304 92.5541 14.4829 84.6111 14.3138 76.7941C14.1707 70.577 14.7963 64.1608 14.2891 57.9697C14.5232 60.7271 15.1215 63.4455 16.123 66.0988Z" fill="#BE9B13" stroke="#282D35"/>
     <path vector-effect="non-scaling-stroke" d="M173.152 51.2114C173.152 59.3408 172.009 67.6849 168.495 75.0991C166.01 80.3797 162.226 84.945 158.076 89.0291C143.639 103.258 124.077 112.246 103.852 113.572C95.7882 114.119 87.6851 113.468 79.7251 112.077C66.2113 109.696 52.9836 105.079 41.6029 97.4183C29.1536 89.0285 14.5372 73.975 14.5371 57.7693C14.537 34.7948 23.7189 24.1785 36.8685 15.256C53.699 3.82327 74.7826 0.662683 94.7346 1.02687C116 1.41706 136.186 5.14994 154.083 17.298C166.001 25.3957 173.152 36.8692 173.152 51.2114Z" fill="#FECB04" stroke="#282D35"/>
     <path vector-effect="non-scaling-stroke" d="M83.926 28.8088C84.9275 33.0489 78.9184 35.0389 76.2131 37.055C72.025 40.1635 68.149 43.7013 64.8454 47.7463C61.7238 51.5572 58.134 61.9235 51.2405 55.9014C49.3546 54.2496 48.6132 51.6223 48.4702 49.125C48.171 44.3126 49.7188 39.4221 52.7103 35.6633C56.6513 30.7078 63.4797 26.8318 69.4627 24.8678C73.3777 23.5932 82.7034 23.6192 83.926 28.8088Z" fill="#FFFAFA" stroke="#282D35"/>
     <path vector-effect="non-scaling-stroke" d="M66.2367 14.1248C58.3548 16.4789 50.7719 20.2378 44.841 25.9347C38.91 31.6316 34.7349 39.3965 34.3057 47.6036" stroke="#282D35" stroke-miterlimit="10" stroke-linecap="round"/>
</svg>
