<svg width="89" height="88" viewBox="0 0 89 88" fill="none" xmlns="http://www.w3.org/2000/svg">
<path d="M30.2271 66.1171C32.0235 69.1646 34.5556 71.4226 37.9963 72.4563C40.2514 73.1326 42.6376 73.2607 44.9701 73.0194C46.0664 72.9062 47.1567 72.5904 48.247 72.5964C49.522 72.6023 50.8447 72.2568 52.0601 71.8874C54.339 71.1933 56.5167 70.0463 58.164 68.3275C59.8114 66.6086 60.8838 64.279 60.8332 61.8988C60.7379 57.6568 57.1839 55.4791 53.636 54.0999C50.088 52.7206 46.1528 52.1874 42.3427 52.5955C41.0468 52.7355 39.7629 52.9768 38.5087 53.3313C35.6816 54.1326 32.2022 55.6996 30.6829 58.3747C29.4258 60.5911 28.8657 63.8203 30.2182 66.1201L30.2271 66.1171Z" fill="#F0ECD9" stroke="#282D35" stroke-miterlimit="10"/>
<path d="M67.417 62.8169C67.143 63.091 66.5353 63.228 66.1688 63.3681C65.728 63.5349 65.2781 63.6868 64.8223 63.8209C63.6695 64.1575 62.4838 64.3898 61.2863 64.509C60.1722 64.6222 58.9806 64.6103 57.9588 64.0949C57.1336 63.6749 56.6867 62.9004 56.645 61.9828C56.5974 60.8627 57.6192 59.9184 58.7214 59.692C60.2168 59.3881 61.754 60.0554 63.1094 60.6065C63.8542 60.9104 64.584 61.2411 65.302 61.6075C66.0199 61.9739 66.851 62.3046 67.417 62.8169Z" fill="white" stroke="#282D35" stroke-miterlimit="10" stroke-linejoin="round"/>
<path d="M56.1118 74.9738C56.1058 74.9738 55.3768 74.405 55.2032 74.2559C53.8507 73.0941 52.4953 71.9353 51.1428 70.7735C49.8917 69.701 48.0536 68.2562 48.7686 66.4212C49.2869 65.0926 50.5292 64.5176 51.7982 65.1611C54.6521 66.6089 55.5666 72.1885 56.1058 74.9738L56.1118 74.9738Z" fill="white" stroke="#282D35" stroke-miterlimit="10" stroke-linejoin="round"/>
<path d="M39.0201 78.7303C38.5911 77.4374 38.7818 76.0552 38.7818 74.7206C38.7818 73.5827 38.5792 72.4625 38.5077 71.3305C38.3975 69.5342 38.8801 67.0497 40.9535 66.5731C43.6554 65.9505 44.1588 68.4796 43.3724 70.3028C42.1212 73.1984 40.6049 76.0075 39.0141 78.7303L39.0201 78.7303Z" fill="white" stroke="#282D35" stroke-miterlimit="10" stroke-linejoin="round"/>
<path d="M24.9898 65.9978C24.2659 66.3999 23.5629 66.8289 22.9194 67.3711C22.982 67.3085 23.6255 67.4813 23.7327 67.4992C24.0217 67.5439 24.3136 67.5915 24.6055 67.6332C25.1507 67.7196 25.7018 67.8239 26.2499 67.8596C27.379 67.9341 28.4961 68.0324 29.6281 68.0145C30.4146 68.0026 31.2099 67.9579 31.9517 67.6988C32.6935 67.4396 33.3816 66.9481 33.7212 66.2391C34.2902 65.0445 33.7451 63.3733 32.4105 62.992C31.1533 62.6285 29.7681 63.2869 28.6748 63.8559C27.7692 64.3266 26.944 64.9194 26.0533 65.4109C25.6959 65.6075 25.3414 65.8012 24.9928 65.9948L24.9898 65.9978Z" fill="white" stroke="#282D35" stroke-miterlimit="10" stroke-linejoin="round"/>
<path d="M57.3473 27.7717C57.4076 22.7113 59.5338 20.9494 58.949 16.2709C58.0771 8.64284 46.846 11.2288 44.3857 13.1061C41.9549 12.8142 39.0176 12.5163 36.7536 13.6662C36.4378 13.827 36.1399 14.0237 35.845 14.2233C34.2929 15.2748 32.7587 16.4098 31.6595 17.9321C31.2931 18.4355 30.9773 18.9837 30.5305 19.4186C30.4024 19.5467 30.2534 19.6658 30.0777 19.7046C29.9347 19.7403 29.7857 19.7165 29.6397 19.6956C29.2257 19.6331 28.8682 19.5616 28.4541 19.6063C28.04 19.651 27.5902 19.6837 27.1612 19.7671C25.9458 20.0114 24.8436 20.6847 23.9201 21.5128C22.9966 22.341 22.228 23.33 21.4743 24.3161C21.2182 24.6497 20.9649 24.9863 20.7475 25.3468C20.53 25.7132 20.3543 26.1034 20.1815 26.4967C19.538 27.9444 18.9065 29.4101 18.5609 30.9651C18.403 31.6771 18.3464 32.3951 18.1945 33.1011C18.0426 33.8071 18.0128 34.5459 18.0604 35.2727C18.123 36.2767 18.3196 37.2716 18.5371 38.2517C18.9124 39.9676 19.3325 41.6746 19.9253 43.3279C20.4972 44.9187 21.2271 46.4469 22.1059 47.8917C22.5438 48.6096 23.0085 49.3246 23.5269 49.9859C24.0452 50.6473 24.3699 51.3712 24.8823 52.0087C25.0312 52.1934 25.1862 52.3781 25.3411 52.5568C26.339 53.7037 27.483 54.9728 28.8056 55.7533C30.1283 56.5337 31.2663 57.487 32.6902 58.0709C33.6703 58.4731 34.707 58.7173 35.7377 58.9497C38.9818 59.6855 42.3004 60.323 45.616 60.0281C46.0033 59.9923 46.3935 59.9477 46.7808 59.9C47.8532 59.7689 48.9406 59.6825 50.007 59.5038C50.9722 59.3429 51.9762 58.7799 52.8937 58.4105C53.1856 58.2913 53.4805 58.1752 53.7635 58.0411C54.0585 57.9011 54.3415 57.7432 54.6245 57.5853C55.5003 57.1027 56.3761 56.6142 57.1834 56.0273C57.5022 55.7979 57.806 55.5537 58.1099 55.3034C60.7463 53.1258 62.7482 50.3017 64.9437 47.6951C65.4412 47.1082 65.9446 46.5273 66.4689 45.9673C69.2852 42.9431 71.9835 33.4787 70.5699 27.7717C68.8918 19.6066 60.1686 19.4314 58.8758 19.8418C58.3096 22.2812 57.6441 24.8029 57.3473 27.7717C57.5376 30.8593 57.7618 32.0603 58.6304 34.7473C58.6304 34.7473 58.8564 35.5752 58.0771 33.1964C57.507 31.4566 57.3319 29.6185 57.3473 27.7955V27.7717Z" fill="white"/>
<path d="M57.3473 27.7717V27.7955C57.3319 29.6185 57.507 31.4566 58.0771 33.1964C58.8564 35.5752 58.6304 34.7473 58.6304 34.7473C57.7618 32.0603 57.5376 30.8593 57.3473 27.7717ZM57.3473 27.7717C57.4076 22.7113 59.5338 20.9494 58.949 16.2709C58.0771 8.64284 46.846 11.2288 44.3857 13.1061C41.9549 12.8142 39.0176 12.5163 36.7536 13.6662C36.4378 13.827 36.1399 14.0237 35.845 14.2233C34.2929 15.2748 32.7587 16.4098 31.6595 17.9321C31.2931 18.4355 30.9773 18.9837 30.5305 19.4186C30.4024 19.5467 30.2534 19.6658 30.0777 19.7046C29.9347 19.7403 29.7857 19.7165 29.6397 19.6956C29.2257 19.6331 28.8682 19.5616 28.4541 19.6063C28.04 19.651 27.5902 19.6837 27.1612 19.7671C25.9458 20.0114 24.8436 20.6847 23.9201 21.5128C22.9966 22.341 22.228 23.33 21.4743 24.3161C21.2182 24.6497 20.9649 24.9863 20.7475 25.3468C20.53 25.7132 20.3543 26.1034 20.1815 26.4967C19.538 27.9444 18.9065 29.4101 18.5609 30.9651C18.403 31.6771 18.3464 32.3951 18.1945 33.1011C18.0426 33.8071 18.0128 34.5459 18.0604 35.2727C18.123 36.2767 18.3196 37.2716 18.5371 38.2517C18.9124 39.9676 19.3325 41.6746 19.9253 43.3279C20.4972 44.9187 21.2271 46.4469 22.1059 47.8917C22.5438 48.6096 23.0085 49.3246 23.5269 49.9859C24.0452 50.6473 24.3699 51.3712 24.8823 52.0087C25.0312 52.1934 25.1862 52.3781 25.3411 52.5568C26.339 53.7037 27.483 54.9728 28.8056 55.7533C30.1283 56.5337 31.2663 57.487 32.6902 58.0709C33.6703 58.4731 34.707 58.7173 35.7377 58.9497C38.9818 59.6855 42.3004 60.323 45.616 60.0281C46.0033 59.9923 46.3935 59.9477 46.7808 59.9C47.8532 59.7689 48.9406 59.6825 50.007 59.5038C50.9722 59.3429 51.9762 58.7799 52.8937 58.4105C53.1856 58.2913 53.4805 58.1752 53.7635 58.0411C54.0585 57.9011 54.3415 57.7432 54.6245 57.5853C55.5003 57.1027 56.3761 56.6142 57.1834 56.0273C57.5022 55.7979 57.806 55.5537 58.1099 55.3034C60.7463 53.1258 62.7482 50.3017 64.9437 47.6951C65.4412 47.1082 65.9446 46.5273 66.4689 45.9673C69.2852 42.9431 71.9835 33.4787 70.5699 27.7717C68.8918 19.6066 60.1686 19.4314 58.8758 19.8418C58.3096 22.2812 57.6441 24.8029 57.3473 27.7717Z" stroke="#282D35" stroke-miterlimit="10" stroke-linecap="round"/>
<path d="M30.709 19.2051C28.2135 23.4444 28.8151 26.5547 28.8151 28.1236" stroke="#282D35" stroke-miterlimit="10" stroke-linecap="round"/>
<path d="M45.5199 12.4364C41.1222 14.6747 41.9572 20.2697 42.6473 22.0721" stroke="#282D35" stroke-miterlimit="10" stroke-linecap="round"/>
</svg>
