<svg width="163" height="152" viewBox="0 0 163 152" fill="none" xmlns="http://www.w3.org/2000/svg">
<path d="M128.788 68.0233C123.853 73.4295 118.169 78.1109 113.358 83.6213C109.064 88.546 105.525 94.0664 102 99.562C97.0802 107.237 92.1654 114.912 87.2457 122.582C81.5963 131.404 75.4156 140.935 72.6852 151.048L72.6951 151.331C72.5611 151.34 72.4271 151.345 72.2881 151.335L72.298 151.048C70.2328 141.774 68.6889 132.381 67.6762 122.929C67.4825 121.132 67.3088 119.32 66.8868 117.558C66.4053 115.532 65.606 113.596 65.1096 111.571C64.5982 109.471 64.4195 107.301 64.2408 105.142L64.2061 105.058C64.5585 104.914 64.916 104.745 65.2684 104.551C68.1925 102.953 70.4761 100.411 72.6803 97.9088C83.5721 85.5575 94.0668 72.8685 104.611 60.2193C115.205 47.5154 125.849 34.8463 136.979 22.6091C138.761 20.6532 140.553 18.7071 142.36 16.771C143.591 15.4555 145.984 13.6335 145.86 11.6081C145.815 10.8584 144.922 10.1535 144.068 9.78613C145.433 10.218 146.704 10.8386 147.627 11.9059C152.309 17.327 156.509 23.6467 160.525 29.6039C160.704 29.867 160.882 30.1351 161.056 30.4082L160.882 30.5174C147.796 40.049 139.699 56.069 128.788 68.0233ZM148.079 23.7906C148.933 22.7878 149.807 21.3184 148.998 20.2858C146.739 17.3916 141.501 24.0835 140.419 25.5133C133.186 35.0399 125.462 44.1843 117.737 53.3188C117.022 54.1677 116.302 55.0166 115.587 55.8605C109.705 62.8305 103.832 69.8104 97.9241 76.7556C95.2583 79.8881 92.1009 82.2512 89.5492 85.6071C86.7245 89.3155 84.148 93.2225 80.9757 96.6479C78.2503 99.5918 75.078 102.203 73.0476 105.663C71.0222 109.123 70.4165 113.849 72.9384 116.972C76.9844 106.269 84.5253 97.323 91.9321 88.6006C94.0271 86.1333 96.1221 83.666 98.3262 81.298C100.54 78.9201 102.864 76.6464 105.068 74.2585C106.756 72.4167 108.374 70.5154 109.993 68.6091C122.691 53.6712 135.385 38.7285 148.079 23.7906Z" fill="#FECB04"/>
<path d="M128.788 68.0233C139.7 56.0691 147.797 40.049 160.883 30.5174L161.056 30.4082C161.637 31.3266 162.149 32.2996 162.317 33.367C162.844 36.7477 159.686 41.6128 157.696 44.1893C155.184 47.436 152.19 50.2707 149.678 53.5124C145.493 58.8938 141.611 64.4986 137.625 70.0239C130.759 79.5407 123.561 88.8141 116.362 98.0826C112.952 102.476 109.541 106.87 106.126 111.268C96.6585 123.465 87.1865 135.663 77.7145 147.86C76.6968 149.171 75.5847 150.551 74.016 151.087C73.5841 151.236 73.1423 151.311 72.6955 151.331L72.6855 151.048C75.416 140.935 81.5966 131.404 87.2461 122.582C92.1658 114.912 97.0805 107.237 102 99.562C105.525 94.0664 109.065 88.546 113.359 83.6214C118.169 78.1109 123.853 73.4295 128.788 68.0233Z" fill="#D8A629"/>
<path d="M128.788 68.0233C139.7 56.0691 147.797 40.049 160.883 30.5174L161.056 30.4082C161.637 31.3266 162.149 32.2996 162.317 33.367C162.844 36.7477 159.686 41.6128 157.696 44.1893C155.184 47.436 152.19 50.2707 149.678 53.5124C145.493 58.8938 141.611 64.4986 137.625 70.0239C130.759 79.5407 123.561 88.8141 116.362 98.0826C112.952 102.476 109.541 106.87 106.126 111.268C96.6585 123.465 87.1865 135.663 77.7145 147.86C76.6968 149.171 75.5847 150.551 74.016 151.087C73.5841 151.236 73.1423 151.311 72.6955 151.331L72.6855 151.048C75.416 140.935 81.5966 131.404 87.2461 122.582C92.1658 114.912 97.0805 107.237 102 99.562C105.525 94.0664 109.065 88.546 113.359 83.6214C118.169 78.1109 123.853 73.4295 128.788 68.0233Z" fill="#D89529"/>
<path d="M16.1563 83.2093C15.6748 84.1426 15.501 85.3042 15.9627 86.2524C16.9407 88.2481 19.2094 89.6878 21.1455 90.5267C23.7866 91.6686 26.4376 92.7955 29.0985 93.9125C34.4104 96.1365 39.752 98.301 45.1086 100.411C51.1751 102.794 57.6734 107.768 64.2066 105.057L64.2413 105.142C64.42 107.301 64.5987 109.471 65.1101 111.571C65.6065 113.596 66.4058 115.532 66.8873 117.558C67.3093 119.32 67.483 121.132 67.6767 122.929C68.6894 132.381 70.2333 141.774 72.2985 151.047C65.8795 144.033 58.4777 135.673 50.6091 130.326C38.6251 122.175 24.3029 118.114 9.99553 115.81C7.02684 115.329 3.96381 114.927 1.05469 115.681C1.1788 114.743 1.50148 113.8 1.83906 112.911C3.4773 108.557 5.71128 104.392 7.64738 100.138C9.65299 95.7344 11.7579 91.3757 13.8628 87.0169C14.3245 86.0588 14.7862 85.1007 15.3571 84.2021C15.7294 83.6263 16.1365 83.0752 16.5684 82.5391C16.4145 82.7525 16.2755 82.9759 16.1563 83.2093Z" fill="#FECB04"/>
<path d="M72.298 151.048L72.2881 151.336C71.0669 151.316 69.8208 150.934 68.6492 150.541C52.6788 145.2 37.3687 138.091 22.0982 130.992C15.7339 128.038 9.31001 125.044 3.73997 120.775C2.72724 119.995 1.70458 119.127 1.25778 117.935C0.98474 117.21 0.94999 116.446 1.05424 115.681C3.96337 114.927 7.02639 115.329 9.99509 115.811C24.3024 118.114 38.6247 122.175 50.6087 130.326C58.4772 135.673 65.8791 144.033 72.298 151.048Z" fill="#D89529"/>
<path d="M17.4567 81.4717C21.6963 76.4775 26.7103 72.4564 31.5158 68.0381C41.9311 58.4767 52.3513 48.9103 62.7666 39.344C64.4644 37.6511 66.5246 36.3008 67.9395 34.3548C69.4337 32.2946 71.2954 30.5272 73.0826 28.6855C74.4627 27.2706 76.0264 26.2579 77.4016 24.8381C82.4752 19.6006 87.6381 14.5618 92.5429 9.21019C95.1592 6.34575 97.9392 3.12386 101.533 1.46576C104.735 -0.00865877 110.216 2.42389 113.597 3.15365C122.92 5.1543 132.248 7.15494 141.571 9.15559C142.4 9.3343 143.244 9.52295 144.058 9.78606H144.068C144.922 10.1534 145.816 10.8584 145.86 11.608C145.984 13.6335 143.592 15.4554 142.36 16.7709C140.553 18.7071 138.761 20.6531 136.979 22.6091C125.849 34.8462 115.205 47.5153 104.611 60.2192C94.067 72.8684 83.5723 85.5574 72.6804 97.9088C70.4763 100.411 68.1927 102.953 65.2686 104.551C64.9162 104.745 64.5587 104.914 64.2063 105.057C57.6731 107.768 51.1748 102.794 45.1083 100.411C39.7517 98.3009 34.41 96.1365 29.0982 93.9124C26.4373 92.7955 23.7863 91.6685 21.1452 90.5267C19.2091 89.6878 16.9404 88.2481 15.9624 86.2524C15.5007 85.3042 15.6745 84.1425 16.156 83.2092C16.2752 82.9759 16.4142 82.7525 16.5681 82.539C16.573 82.5291 16.578 82.5192 16.5879 82.5142C16.7766 82.2759 16.9702 82.0426 17.1688 81.8093C17.2631 81.6951 17.3574 81.5859 17.4567 81.4717ZM124.806 12.5016C126.231 11.5832 125.477 10.7144 124.097 10.2477C122.22 9.61727 120.274 9.14069 118.358 8.66411C114.386 7.68116 110.36 6.91665 106.304 6.37553C105.013 6.20178 103.678 6.05285 102.422 6.40532C100.595 6.91169 99.2548 8.68893 97.8399 9.87046C96.0875 11.33 94.4542 12.9285 92.8755 14.5717C89.7331 17.8333 86.8041 21.2985 83.5624 24.4707C74.5967 33.2378 66.6338 43.1963 56.9037 51.1195C56.4221 51.5117 55.9207 51.9138 55.6129 52.4549C55.1065 53.3435 55.3548 54.3414 56.3278 54.7137C57.4299 55.1406 57.7724 54.391 58.5022 53.8052C60.4284 52.2613 62.3099 50.6479 64.0672 48.9153C67.7856 45.2665 71.0521 41.1957 74.5719 37.3632C81.9539 29.3308 90.4132 22.3757 98.8427 15.4504C100.774 13.8618 102.511 12.308 105.023 12.0647C107.784 11.7966 110.673 11.9654 113.443 11.9853C115.28 12.0002 117.127 12.03 118.944 12.3129C120.532 12.5562 123.307 13.4647 124.806 12.5016Z" fill="#FECB04"/>
<path d="M148.998 20.2857C149.807 21.3183 148.933 22.7878 148.079 23.7906C135.385 38.7284 122.691 53.6712 109.993 68.609C108.374 70.5153 106.756 72.4167 105.068 74.2584C102.864 76.6463 100.54 78.92 98.3263 81.2979C96.1221 83.6659 94.0271 86.1332 91.9321 88.6005C84.5253 97.3229 76.9844 106.269 72.9384 116.972C70.4165 113.849 71.0222 109.123 73.0477 105.663C75.0781 102.203 78.2503 99.5917 80.9758 96.6478C84.148 93.2224 86.7245 89.3154 89.5492 85.607C92.1009 82.2511 95.2583 79.888 97.9242 76.7555C103.832 69.8104 109.705 62.8304 115.587 55.8604C116.302 55.0165 117.022 54.1676 117.737 53.3187C125.462 44.1842 133.186 35.0398 140.419 25.5132C141.501 24.0835 146.739 17.3915 148.998 20.2857Z" fill="#FFFAFA"/>
<path d="M124.096 10.2478C125.476 10.7144 126.231 11.5832 124.806 12.5016C123.307 13.4647 120.532 12.5562 118.943 12.313C117.126 12.03 115.279 12.0002 113.442 11.9853C110.672 11.9655 107.783 11.7967 105.023 12.0647C102.511 12.308 100.773 13.8618 98.8422 15.4504C90.4127 22.3758 81.9534 29.3309 74.5714 37.3632C71.0516 41.1957 67.7851 45.2665 64.0668 48.9153C62.3094 50.6479 60.4279 52.2613 58.5017 53.8052C57.7719 54.391 57.4294 55.1407 56.3273 54.7137C55.3543 54.3414 55.1061 53.3436 55.6124 52.4549C55.9202 51.9138 56.4216 51.5117 56.9032 51.1195C66.6334 43.1964 74.5962 33.2378 83.5619 24.4707C86.8036 21.2985 89.7326 17.8334 92.8751 14.5718C94.4537 12.9285 96.087 11.33 97.8394 9.87049C99.2543 8.68896 100.595 6.91172 102.422 6.40535C103.678 6.05288 105.013 6.20181 106.304 6.37556C110.36 6.91668 114.386 7.68119 118.357 8.66414C120.273 9.14072 122.22 9.6173 124.096 10.2478Z" fill="#FFFAFA"/>
<path d="M144.058 9.78606C143.244 9.52295 142.4 9.3343 141.571 9.15559C132.248 7.15494 122.92 5.1543 113.597 3.15365C110.216 2.42389 104.735 -0.00865871 101.533 1.46576C97.9392 3.12386 95.1591 6.34575 92.5429 9.21019C87.6381 14.5618 82.4751 19.6006 77.4015 24.8381C76.0264 26.2579 74.4626 27.2706 73.0825 28.6855C71.2953 30.5272 69.4337 32.2946 67.9394 34.3548C66.5246 36.3008 64.4644 37.6511 62.7665 39.344C52.3513 48.9103 41.931 58.4767 31.5158 68.0381C26.7103 72.4564 21.6962 76.4775 17.4567 81.4717C17.3574 81.5859 17.263 81.6951 17.1687 81.8093C16.9701 82.0426 16.7765 82.2759 16.5879 82.5142" stroke="#282D35" stroke-miterlimit="10"/>
<path d="M16.5679 82.5391C16.136 83.0753 15.7289 83.6263 15.3566 84.2022C14.7857 85.1007 14.324 86.0589 13.8623 87.017C11.7574 91.3757 9.65255 95.7344 7.64694 100.138C5.71083 104.392 3.47686 108.557 1.83861 112.911C1.50104 113.8 1.17835 114.743 1.05424 115.681C0.94999 116.446 0.98474 117.21 1.25778 117.935C1.70458 119.127 2.72724 119.995 3.73997 120.775C9.31 125.044 15.7339 128.038 22.0982 130.991C37.3687 138.091 52.6788 145.2 68.6492 150.541C69.8208 150.933 71.0669 151.316 72.2881 151.335C72.4271 151.345 72.5612 151.34 72.6952 151.331C73.142 151.311 73.5838 151.236 74.0157 151.087C75.5845 150.551 76.6965 149.171 77.7142 147.86C87.1862 135.663 96.6583 123.465 106.125 111.268C109.541 106.87 112.951 102.476 116.362 98.0826C123.56 88.8141 130.759 79.5406 137.624 70.0239C141.611 64.4986 145.493 58.8938 149.678 53.5124C152.19 50.2706 155.183 47.436 157.695 44.1893C159.686 41.6128 162.843 36.7477 162.317 33.3669C162.148 32.2996 161.637 31.3266 161.056 30.4082C160.882 30.1351 160.704 29.867 160.525 29.6039C156.509 23.6467 152.309 17.327 147.628 11.9059C146.704 10.8386 145.433 10.218 144.068 9.78613" stroke="#282D35" stroke-miterlimit="10"/>
<path d="M18.1517 80.7718C17.9184 81.0002 17.6851 81.2335 17.4567 81.4718C17.1439 81.7994 16.8461 82.1469 16.5879 82.5143C16.578 82.5143 16.573 82.5292 16.5681 82.5391C16.4142 82.7526 16.2752 82.976 16.156 83.2093C15.6745 84.1426 15.5007 85.3043 15.9624 86.2525C16.9404 88.2482 19.2091 89.6878 21.1452 90.5268C23.7863 91.6686 26.4373 92.7955 29.0982 93.9125C34.41 96.1366 39.7517 98.301 45.1083 100.411C51.1748 102.794 57.6731 107.768 64.2063 105.058C64.5587 104.914 64.9162 104.745 65.2686 104.551C68.1927 102.953 70.4763 100.411 72.6804 97.9088C83.5723 85.5575 94.067 72.8685 104.611 60.2193C115.205 47.5154 125.849 34.8463 136.979 22.6091C138.761 20.6532 140.553 18.7071 142.36 16.771C143.592 15.4555 145.984 13.6335 145.86 11.6081C145.816 10.8584 144.922 10.1535 144.068 9.78614H144.058C143.795 9.667 143.532 9.58757 143.299 9.54785" stroke="#282D35" stroke-miterlimit="10"/>
<path d="M64.2412 105.142C64.4199 107.301 64.5986 109.471 65.11 111.571C65.6064 113.596 66.4057 115.532 66.8872 117.558C67.3092 119.32 67.4829 121.132 67.6766 122.929C68.6893 132.381 70.2332 141.774 72.2984 151.047" stroke="#282D35" stroke-miterlimit="10"/>
<path d="M1.0498 115.681C3.95893 114.927 7.02195 115.329 9.99065 115.811C24.298 118.114 38.6202 122.175 50.6042 130.326C58.4728 135.673 65.8747 144.033 72.2936 151.048" stroke="#282D35" stroke-miterlimit="10"/>
<path d="M160.883 30.5173C147.797 40.0489 139.7 56.069 128.788 68.0232C123.853 73.4294 118.169 78.1108 113.359 83.6213C109.065 88.546 105.525 94.0663 102 99.5619C97.0805 107.237 92.1658 114.912 87.2461 122.582C81.5966 131.403 75.416 140.935 72.6855 151.047" stroke="#282D35" stroke-miterlimit="10"/>
</svg>
