<svg width="249" height="259" viewBox="0 0 249 259" fill="none" xmlns="http://www.w3.org/2000/svg">
<path d="M241.409 1.06628C239.671 1.8754 237.621 5.76467 236.692 7.24499C235.221 9.59878 234.007 12.1089 233.079 14.7293C232.941 15.1431 232.812 15.5568 232.711 15.9706C231.451 20.8528 232.555 26.2776 231.424 31.3346C230.302 36.3456 227.433 41.3658 222.661 43.269C222.707 43.2507 221.42 29.9002 221.448 28.5854C221.54 24.5398 221.641 19.8139 223.618 16.228C227.461 9.25858 233.897 3.7235 241.409 1.06628Z" fill="#FECB04"/>
<path d="M159.552 15.5212C162.007 13.6271 162.908 14.188 161.971 17.0842C161.042 19.9437 160.573 22.9503 160.601 25.9477C160.619 28.7153 161.051 31.4736 160.812 34.232C160.159 41.5048 154.946 47.5456 149.328 52.2348C149.935 46.948 150.211 41.6244 150.165 36.3099C150.128 33.2574 149.999 30.1588 150.799 27.2166C152.096 22.4722 155.737 18.4634 159.552 15.5212Z" fill="#FECB04"/>
<path d="M176.257 53.7975C176.496 60.4267 172.552 67.0284 166.594 69.9614C167.982 68.003 168.948 65.7503 169.389 63.3873C170.492 57.558 168.442 51.5448 169.085 45.642C169.711 39.831 173.205 33.9282 178.363 31.0227C173.03 38.4059 175.954 45.3385 176.257 53.7975Z" fill="#FECB04"/>
<path d="M248.241 98.7758C243.745 100.762 241.713 103.695 240.573 108.467C239.267 113.937 237.668 119.417 234.735 124.208C231.792 128.998 227.342 133.08 221.908 134.524C229.153 127.435 227.829 115.124 233.613 106.793C235.231 104.476 237.456 102.481 239.994 101.065C242.531 99.6492 245.382 98.8125 248.241 98.7758Z" fill="#FECB04"/>
<path d="M73.7391 128.696C73.1047 129.174 72.4978 129.661 71.9278 130.167L71.8818 130.112C71.0911 123.896 75.3573 118.288 77.233 112.302C79.8442 103.972 77.7203 94.9795 75.5964 86.5022C80.258 89.2053 83.7151 93.8945 84.9104 99.1446C86.1701 104.67 85.0024 110.445 85.5264 116.09C85.6276 117.157 85.7931 118.242 86.3172 119.179C87.8526 121.938 92.0178 122.26 94.6106 120.467C97.2035 118.674 98.4539 115.483 98.9872 112.375C99.8791 107.217 99.2171 101.921 98.2976 96.7632C97.0472 89.7386 95.337 82.7876 94.6474 75.6894C93.4705 63.663 95.6404 51.9032 104.513 43.2236C108.228 39.601 112.972 36.8978 118.121 36.2726C113.643 39.6654 110.591 44.8878 109.846 50.4597C109.469 53.2181 109.671 56.1419 110.931 58.6244C112.2 61.1069 114.664 63.0746 117.441 63.2585C119.831 63.424 122.157 62.2746 123.932 60.6656C125.706 59.0566 127.012 57.0154 128.299 54.9926C129.531 53.0526 130.782 51.0849 131.536 48.915C132.06 47.4255 132.345 45.8625 132.538 44.2994C134.092 32.0155 130.258 19.1432 122.231 9.71887C132.768 14.831 140.418 25.4782 141.907 37.1001C142.597 42.4605 142.44 48.8691 141.576 54.1835C140.565 60.4449 136.924 66.6972 134.763 72.6277C132.317 79.3488 130.469 86.493 131.232 93.6003C131.379 94.9703 131.637 96.3771 132.391 97.5356C133.08 98.6113 134.147 99.402 135.269 100.018C137.521 101.269 140.142 101.94 142.707 101.627C145.272 101.324 147.746 99.9721 149.162 97.8114C149.879 96.7264 150.311 95.476 150.642 94.2163C152.306 87.8629 151.534 81.1602 151.8 74.5953C152.076 68.0396 153.74 60.9506 158.889 56.8775C158.393 60.3162 158.089 63.7825 157.998 67.2581C157.952 68.9315 157.952 70.6233 158.31 72.2599C158.715 74.0804 159.561 75.7814 160.452 77.418C163.045 82.1899 166.144 86.686 169.684 90.796C171.173 92.5337 172.819 94.3451 173.132 96.6161C173.619 100.147 170.769 103.172 168.148 105.59C166.64 106.978 165.123 108.367 163.615 109.764C161.271 111.925 158.834 114.214 157.777 117.23C156.719 120.237 157.547 124.172 160.425 125.56C161.482 126.066 162.668 126.176 163.836 126.204C165.638 126.241 167.468 126.075 169.15 125.45C173.738 123.731 176.405 118.94 177.876 114.27C181.094 104.073 180.45 93.1222 181.177 82.4566C181.526 77.3352 182.225 72.1311 184.478 67.5247C186.684 62.9826 190.62 59.0474 195.529 57.9073C193.121 58.7715 190.767 64.8307 189.958 66.7983C188.606 70.09 188.201 73.5011 190.472 76.5721C190.831 77.0502 191.236 77.5007 191.705 77.8685C197.203 82.1991 201.809 75.7078 204.908 72.0668C209.137 67.0834 211.381 60.3898 210.783 53.8617C210.296 48.5748 208.108 43.5914 206.949 38.4057C205.791 33.2108 205.855 27.262 209.284 23.198C208.825 32.604 213.394 41.4215 217.661 49.8069C221.927 58.1923 226.12 67.3132 224.851 76.6365C223.766 84.5437 219.27 91.1638 214.424 97.2229C208.797 104.284 203.161 111.337 197.525 118.389C196.283 119.943 195.051 121.496 193.81 123.05C191.787 125.579 189.654 128.484 190.022 131.693C190.491 135.693 195.061 138.322 199.023 137.642C202.995 136.962 206.149 133.762 207.914 130.148C208.889 128.162 209.523 126.011 210.59 124.071C211.445 122.535 212.567 121.147 213.679 119.777C216.429 116.384 219.656 112.716 224.005 112.274C219.821 116.688 216.429 122.085 215.426 128.08C215.077 130.185 215.013 132.318 215.013 134.451C214.976 142.322 215.601 150.229 214.774 158.054C213.983 165.584 211.712 173.216 206.811 178.962C207.611 171.404 207.023 162.688 203.216 156.206C198.444 148.069 189.378 138.92 179.991 136.603C175.154 135.399 168.121 135.187 163.183 135.785C162.797 135.831 162.402 135.895 162.015 135.969C159.092 135.472 157.529 135.573 154.752 134.12C151.828 132.585 149.217 130.277 147.81 127.289C146.753 125.046 145.907 122.784 145.668 120.329C145.576 119.345 145.245 112.532 146.219 112.155C140.031 114.527 132.621 113.368 127.453 109.222C122.277 105.075 119.546 98.0964 120.521 91.5316C121.045 87.9641 122.599 84.3966 121.845 80.8659C116.705 82.1807 110.821 79.5787 108.347 74.8803C105.947 83.2565 108.044 92.166 109.368 100.781C110.701 109.387 111.023 118.977 105.81 125.965C103.621 128.916 100.477 131.344 99.5113 134.893L98.7665 134.911C98.0218 134.562 97.2218 134.268 96.3668 134.019C95.1623 133.67 93.9026 133.431 92.8453 132.76C91.5856 131.969 90.7581 130.673 89.7743 129.56C85.0943 124.31 79.0903 124.724 73.7391 128.696ZM210.572 89.6191C213.339 86.3367 214.755 81.9601 214.461 77.6754C213.946 77.9697 213.523 78.4018 213.1 78.8156C208.788 83.1002 203.933 86.1528 197.828 87.0538C196.228 87.2837 194.592 86.9251 193.093 86.355C191.603 85.785 190.05 85.0402 188.772 84.0748C188.707 84.0288 188.624 83.9829 188.56 84.0196C188.505 84.0472 188.496 84.1208 188.486 84.1851C188.431 84.5805 188.385 84.9759 188.33 85.3804C188.275 85.7942 188.22 86.2171 188.165 86.6401C188.036 87.6607 188.064 88.6537 187.907 89.6743C187.797 90.3914 187.659 91.1178 187.595 91.8442C187.346 94.6301 187.153 97.4252 187.015 100.211C186.868 103.006 186.785 105.801 186.74 108.597C186.73 109.562 186.537 112.798 187.015 114.233C187.089 114.453 187.181 114.637 187.291 114.757C187.503 114.987 187.88 114.932 188.174 114.812C189.571 114.812 191.098 112.054 191.815 111.162C193.194 109.452 194.573 107.732 195.952 106.022C198.012 103.457 200.062 100.901 202.15 98.3539C204.733 95.191 207.951 92.7452 210.572 89.6191Z" fill="#FECB04"/>
<path d="M72.0283 203.529C71.4031 204.504 71.0905 205.644 70.6676 206.72C68.516 212.099 63.0821 216.016 57.2896 216.328C57.2896 216.383 55.4507 219.822 55.1289 220.171C54.0991 221.33 52.8118 222.203 51.4511 222.902C50.0259 223.629 48.5088 224.153 47.0009 224.64C45.208 225.219 43.3231 224.603 41.6037 225.357C39.7097 226.185 38.5788 228.511 36.5284 228.75C35.5997 228.86 34.6527 228.502 33.7424 228.722C33.0345 228.888 32.4552 229.403 31.83 229.789C30.3129 230.718 28.474 230.92 26.6995 230.846C26.0375 230.819 25.3754 230.754 24.7226 230.846C23.9043 230.966 23.132 231.315 22.3597 231.6C18.0934 233.182 12.8341 233.062 8.34723 232.915C6.729 232.869 5.0648 232.75 3.61206 232.032C2.15933 231.324 0.964049 229.872 1.00083 228.253C1.11116 224.539 7.62087 221.33 10.0942 219.188C21.0908 209.653 32.1978 199.999 40.7119 188.184C46.2194 180.534 50.5408 172.112 54.8254 163.717L53.4922 163.028C52.0487 163.478 50.5592 163.791 49.0513 163.956C48.1134 164.057 46.817 163.818 46.7711 162.88C46.7435 162.329 47.2032 161.887 47.6353 161.538C49.4007 160.104 51.3131 158.844 52.9957 157.309C57.4275 153.245 59.8732 147.636 62.8522 142.524C65.5646 137.881 67.9736 133.67 71.9272 130.166C72.4973 129.661 73.1041 129.173 73.7385 128.695C79.0897 124.723 85.0937 124.31 89.7737 129.56C90.7575 130.672 91.5851 131.969 92.8447 132.759C93.9021 133.43 95.1617 133.67 96.3662 134.019C97.2213 134.267 98.0212 134.561 98.766 134.911C105.625 138.065 108.457 145.163 111.243 152.086V152.105C111.408 152.5 111.565 152.895 111.73 153.291C118.249 153.429 124.63 156.637 128.648 161.768C132.363 166.512 134.082 172.673 136.675 178.107L136.767 178.061C139.911 168.609 142.559 159.764 151.027 153.603C151.478 153.281 151.947 152.95 152.177 152.445C152.241 152.307 152.287 152.15 152.306 152.003C152.379 151.599 152.324 151.167 152.269 150.744C152.269 150.707 152.26 150.679 152.26 150.643C151.791 147.038 152.204 143.121 154.429 140.244C156.25 137.899 159.082 136.529 162.015 135.968C162.401 135.895 162.796 135.83 163.183 135.784C168.12 135.187 175.154 135.398 179.99 136.603C189.378 138.92 198.444 148.068 203.215 156.205C207.022 162.687 207.61 171.404 206.811 178.962C206.719 179.872 206.599 180.764 206.47 181.637C205.165 190.243 199.354 198.583 192.495 203.704C192.219 203.906 191.934 204.109 191.676 204.348C191.355 204.614 191.079 204.918 190.886 205.286C190.518 205.957 190.499 206.757 190.454 207.52C189.736 219.059 180.763 228.888 170.161 233.494C169.085 233.963 167.955 234.414 167.145 235.26C166.493 235.931 166.106 236.804 165.684 237.641C162.705 243.498 157.997 246.348 153.188 250.394C147.791 254.945 141.024 258.329 133.972 258.034C130.294 257.878 126.285 256.37 122.837 255.267C118.828 253.98 115.739 250.256 115.325 246.036C112.705 247.231 109.413 246.256 107.436 244.16C105.45 242.064 104.65 239.057 104.706 236.17C102.122 237.788 98.2603 236.786 96.7983 234.11C95.4651 231.683 96.0904 228.695 95.7042 225.946L95.6766 225.725C93.2217 224.971 89.976 226.718 88.2658 224.805C87.7509 224.226 87.5395 223.426 87.3832 222.663C86.8775 220.162 86.6844 217.606 86.8223 215.059C85.0661 214.195 82.5377 215.271 81.2504 213.8C80.5333 212.981 80.6252 211.749 80.6528 210.655C80.7539 206.582 79.3564 202.5 76.7819 199.346L76.3038 199.272C75.0166 200.78 73.1133 201.838 72.0283 203.529Z" fill="#F0ECD9"/>
<path d="M188.33 85.3815C188.385 84.9769 188.431 84.5816 188.487 84.1862C188.487 84.1219 188.505 84.0483 188.56 84.0207C188.624 83.9839 188.707 84.0299 188.772 84.0759C190.05 85.0413 191.603 85.7861 193.093 86.3561C194.592 86.9262 196.228 87.2848 197.828 87.0549C203.933 86.1538 208.788 83.1013 213.1 78.8166C213.523 78.4029 213.946 77.9707 214.461 77.6765C214.755 81.9612 213.339 86.3377 210.572 89.6202C207.951 92.7463 204.733 95.192 202.15 98.3549C200.062 100.902 198.012 103.458 195.952 106.023C194.573 107.733 193.194 109.453 191.815 111.163C191.098 112.055 189.571 114.813 188.174 114.813C187.88 114.933 187.503 114.988 187.291 114.758C187.181 114.638 187.089 114.455 187.015 114.234C186.537 112.8 186.73 109.563 186.74 108.598C186.786 105.802 186.868 103.007 187.015 100.212C187.153 97.4263 187.346 94.6312 187.595 91.8452C187.659 91.1189 187.797 90.3925 187.907 89.6753C188.064 88.6548 188.036 87.6617 188.165 86.6412C188.22 86.2182 188.275 85.7953 188.33 85.3815Z" fill="#D93535"/>
<path d="M151.027 153.604C142.559 159.764 139.911 168.609 136.766 178.061L136.675 178.107C134.082 172.673 132.362 166.513 128.648 161.769C124.63 156.638 118.249 153.429 111.73 153.291C111.564 152.896 111.408 152.501 111.243 152.105V152.087C108.457 145.163 105.625 138.065 98.7656 134.912L99.5104 134.893C100.476 131.344 103.62 128.917 105.809 125.965C111.022 118.977 110.7 109.388 109.367 100.782C108.043 92.1663 105.947 83.2568 108.346 74.8806C110.82 79.579 116.704 82.1811 121.844 80.8662C122.598 84.3969 121.044 87.9644 120.52 91.5319C119.545 98.0967 122.276 105.075 127.452 109.222C132.62 113.369 140.031 114.527 146.218 112.155C145.244 112.532 145.575 119.345 145.667 120.329C145.906 122.784 146.752 125.046 147.809 127.289C149.216 130.277 151.827 132.585 154.751 134.121C157.528 135.574 159.091 135.472 162.015 135.969C159.082 136.53 156.25 137.9 154.429 140.244C152.204 143.122 151.79 147.039 152.259 150.643C152.259 150.68 152.268 150.708 152.268 150.744C152.268 151.167 152.278 151.581 152.305 152.004C152.287 152.151 152.241 152.308 152.176 152.445C151.947 152.951 151.478 153.282 151.027 153.604Z" fill="#D93535"/>
<path d="M54.9266 163.522C54.8898 163.586 54.8622 163.651 54.8254 163.715C50.5408 172.11 46.2194 180.532 40.7119 188.182C32.1978 199.996 21.0908 209.651 10.0942 219.185C7.62087 221.328 1.11116 224.537 1.00083 228.251C0.964049 229.869 2.15933 231.322 3.61206 232.03C5.0648 232.747 6.729 232.867 8.34723 232.913C12.8341 233.06 18.0934 233.179 22.3597 231.598C23.132 231.313 23.9043 230.964 24.7226 230.844C25.3754 230.752 26.0375 230.816 26.6995 230.844C28.474 230.918 30.3129 230.715 31.83 229.787C32.4552 229.4 33.0345 228.886 33.7424 228.72C34.6527 228.499 35.5997 228.858 36.5284 228.748C38.5788 228.509 39.7097 226.182 41.6037 225.355C43.3231 224.601 45.208 225.217 47.0009 224.638C48.5088 224.15 50.0259 223.626 51.4511 222.9C52.8118 222.201 54.0991 221.328 55.1289 220.169C55.4507 219.82 57.2896 216.381 57.2896 216.326C63.0821 216.013 68.516 212.096 70.6676 206.718C71.0905 205.642 71.4031 204.502 72.0283 203.527C73.1133 201.835 75.0166 200.778 76.3038 199.27C76.598 198.921 76.8555 198.544 77.0669 198.13C77.7657 196.769 77.8025 195.188 77.8301 193.661C77.922 188.706 78.0048 183.75 78.0967 178.794" stroke="#282D35" stroke-miterlimit="10" stroke-linejoin="round"/>
<path d="M111.244 152.103C111.41 152.499 111.566 152.894 111.731 153.289C118.25 153.427 124.631 156.636 128.649 161.767C132.364 166.511 134.083 172.671 136.676 178.105C138.239 181.397 140.133 184.422 142.965 186.702" stroke="#282D35" stroke-miterlimit="10" stroke-linejoin="round"/>
<path d="M68.2583 150.733C65.2517 156.59 59.7625 161.077 53.4919 163.026C52.0484 163.477 50.5588 163.789 49.0509 163.955C48.1131 164.056 46.8167 163.817 46.7707 162.879C46.7431 162.327 47.2029 161.886 47.635 161.536C49.4003 160.102 51.3128 158.843 52.9954 157.307C57.4271 153.243 59.8729 147.634 62.8519 142.522C65.5643 137.879 67.9732 133.668 71.9269 130.165C72.4969 129.659 73.1038 129.172 73.7382 128.694C79.0894 124.722 85.0934 124.308 89.7734 129.558C90.7572 130.671 91.5847 131.967 92.8444 132.758C93.9017 133.429 95.1614 133.668 96.3659 134.017C97.2209 134.266 98.0209 134.56 98.7656 134.909C105.625 138.063 108.457 145.161 111.243 152.085" stroke="#282D35" stroke-miterlimit="10" stroke-linejoin="round"/>
<path d="M136.768 178.06C139.913 168.608 142.561 159.763 151.029 153.602C151.479 153.281 151.948 152.95 152.178 152.444C152.242 152.306 152.288 152.15 152.307 152.003C152.38 151.598 152.325 151.166 152.27 150.743C152.27 150.706 152.261 150.679 152.261 150.642C151.792 147.037 152.206 143.121 154.431 140.243C156.251 137.898 159.083 136.528 162.016 135.967C162.402 135.894 162.798 135.829 163.184 135.783C168.121 135.186 175.155 135.397 179.991 136.602C189.379 138.919 198.445 148.067 203.217 156.204C207.023 162.687 207.612 171.403 206.812 178.961C206.72 179.871 206.6 180.763 206.472 181.636C205.166 190.242 199.355 198.582 192.496 203.703C192.22 203.905 191.935 204.108 191.678 204.347C191.356 204.613 191.08 204.917 190.887 205.285C190.519 205.956 190.501 206.756 190.455 207.519C189.738 219.058 180.764 228.887 170.163 233.493C169.087 233.962 167.956 234.413 167.147 235.259C166.494 235.93 166.108 236.803 165.685 237.64C162.706 243.497 157.998 246.347 153.19 250.393C147.792 254.944 141.025 258.328 133.973 258.034C130.295 257.877 126.286 256.369 122.838 255.266C118.83 253.979 115.74 250.255 115.327 246.035C112.706 247.23 109.414 246.255 107.438 244.159C105.452 242.063 104.652 239.056 104.707 236.169C102.123 237.787 98.2616 236.785 96.7996 234.109C95.4664 231.682 96.0917 228.694 95.7055 225.945L95.6779 225.724C93.223 224.97 89.9773 226.717 88.2671 224.805C87.7522 224.225 87.5408 223.425 87.3845 222.662C86.8788 220.161 86.6857 217.605 86.8236 215.058C85.0674 214.194 82.539 215.27 81.2517 213.799C80.5346 212.98 80.6265 211.748 80.6541 210.654C80.7552 206.581 79.3577 202.499 76.7832 199.345" stroke="#282D35" stroke-miterlimit="10" stroke-linejoin="round"/>
<path d="M195.759 57.84C195.685 57.8583 195.602 57.8767 195.529 57.9043C193.12 58.7686 190.766 64.8278 189.957 66.7954C188.605 70.087 188.201 73.4982 190.472 76.5692C190.83 77.0473 191.235 77.4978 191.704 77.8656C197.202 82.1962 201.809 75.7049 204.907 72.0638C209.137 67.0804 211.38 60.3868 210.782 53.8587C210.295 48.5719 208.107 43.5885 206.948 38.4028C205.79 33.2079 205.854 27.259 209.284 23.1951C208.824 32.601 213.394 41.4186 217.66 49.804C221.926 58.1893 226.119 67.3103 224.85 76.6335C223.765 84.5408 219.269 91.1608 214.423 97.22C208.796 104.281 203.16 111.334 197.524 118.386C196.283 119.94 195.051 121.493 193.809 123.047C191.787 125.576 189.653 128.481 190.021 131.69C190.49 135.69 195.06 138.319 199.023 137.639C202.995 136.959 206.148 133.759 207.914 130.146C208.888 128.159 209.523 126.008 210.589 124.068C211.444 122.532 212.566 121.144 213.679 119.774C216.428 116.381 219.655 112.713 224.004 112.271C219.821 116.685 216.428 122.082 215.426 128.077C215.076 130.182 215.012 132.315 215.012 134.449C214.975 142.319 215.6 150.226 214.773 158.051C213.982 165.581 211.711 173.213 206.81 178.959C206.626 179.189 206.424 179.419 206.222 179.64" stroke="#282D35" stroke-miterlimit="10" stroke-linejoin="round"/>
<path d="M71.8818 130.11C71.0911 123.894 75.3573 118.286 77.233 112.3C79.8442 103.97 77.7203 94.9777 75.5964 86.5003C80.258 89.2035 83.7151 93.8927 84.9104 99.1428C86.1701 104.669 85.0024 110.443 85.5264 116.088C85.6276 117.155 85.7931 118.24 86.3172 119.178C87.8526 121.936 92.0178 122.258 94.6106 120.465C97.2034 118.672 98.4539 115.481 98.9872 112.374C99.8791 107.216 99.217 101.92 98.2976 96.7614C97.0471 89.7368 95.337 82.7857 94.6474 75.6876C93.4705 63.6612 95.6404 51.9014 104.513 43.2218C108.228 39.5992 112.972 36.896 118.121 36.2708C113.643 39.6635 110.591 44.886 109.846 50.4579C109.469 53.2162 109.671 56.1401 110.931 58.6226C112.2 61.1051 114.664 63.0727 117.441 63.2566C119.831 63.4221 122.157 62.2728 123.932 60.6638C125.706 59.0547 127.012 57.0136 128.299 54.9908C129.531 53.0507 130.782 51.0831 131.536 48.9132C132.06 47.4237 132.345 45.8606 132.538 44.2976C134.092 32.0137 130.258 19.1414 122.231 9.71704C132.768 14.8292 140.418 25.4764 141.907 37.0983C142.597 42.4587 142.44 48.8672 141.576 54.1816C140.565 60.4431 136.924 66.6954 134.763 72.6258C132.317 79.347 130.469 86.4911 131.232 93.5985C131.379 94.9685 131.637 96.3752 132.391 97.5337C133.08 98.6095 134.147 99.4002 135.269 100.016C137.521 101.267 140.142 101.938 142.707 101.625C145.272 101.322 147.746 99.9703 149.162 97.8096C149.879 96.7246 150.311 95.4742 150.642 94.2145C152.306 87.8611 151.534 81.1583 151.8 74.5934C152.076 68.0378 153.74 60.9488 158.889 56.8756C158.393 60.3144 158.089 63.7807 157.997 67.2562C157.952 68.9296 157.952 70.6214 158.31 72.258C158.715 74.0786 159.561 75.7795 160.452 77.4162C163.045 82.1881 166.144 86.6842 169.684 90.7942C171.173 92.5319 172.819 94.3432 173.132 96.6143C173.619 100.145 170.769 103.17 168.148 105.588C166.64 106.976 165.123 108.365 163.615 109.762C161.271 111.923 158.834 114.213 157.777 117.228C156.719 120.235 157.547 124.17 160.425 125.559C161.482 126.064 162.668 126.175 163.836 126.202C165.638 126.239 167.468 126.073 169.15 125.448C173.738 123.729 176.405 118.939 177.876 114.268C181.094 104.071 180.45 93.1204 181.177 82.4547C181.526 77.3334 182.225 72.1293 184.478 67.5229C186.684 62.9808 190.62 59.0455 195.529 57.9054" stroke="#282D35" stroke-miterlimit="10" stroke-linejoin="round"/>
<path d="M240.573 108.465C239.267 113.936 237.668 119.416 234.735 124.206C231.792 128.997 227.342 133.079 221.908 134.522C229.153 127.433 227.829 115.122 233.613 106.792C235.231 104.475 237.456 102.48 239.994 101.064C242.531 99.6477 245.382 98.8109 248.241 98.7742C243.745 100.76 241.713 103.693 240.573 108.465Z" stroke="#282D35" stroke-miterlimit="10" stroke-linejoin="round"/>
<path d="M160.601 25.9444C160.619 28.712 161.051 31.4703 160.812 34.2287C160.159 41.5015 154.946 47.5423 149.328 52.2315C149.935 46.9447 150.211 41.6211 150.165 36.3067C150.128 33.2541 149.999 30.1555 150.799 27.2133C152.096 22.4689 155.737 18.4601 159.552 15.5179C162.007 13.6238 162.908 14.1847 161.971 17.0809C161.042 19.9404 160.573 22.947 160.601 25.9444Z" stroke="#282D35" stroke-miterlimit="10" stroke-linejoin="round"/>
<path d="M176.257 53.7943C176.496 60.4235 172.552 67.0252 166.594 69.9582C167.982 67.9998 168.948 65.7472 169.389 63.3842C170.492 57.5549 168.442 51.5417 169.085 45.6388C169.711 39.8279 173.205 33.925 178.363 31.0195C173.03 38.4027 175.954 45.3354 176.257 53.7943Z" stroke="#282D35" stroke-miterlimit="10" stroke-linejoin="round"/>
<path d="M241.577 1C241.522 1.01859 241.466 1.04647 241.41 1.06506" stroke="#282D35" stroke-miterlimit="10"/>
<path d="M232.711 15.9689C231.451 20.8511 232.555 26.2759 231.424 31.3329C230.302 36.3439 227.433 41.3641 222.661 43.2673C222.707 43.2489 221.42 29.8985 221.448 28.5837C221.54 24.5381 221.641 19.8122 223.618 16.2263C227.461 9.25688 233.897 3.72179 241.409 1.06458C239.671 1.87369 237.621 5.76297 236.692 7.24328C235.221 9.59707 234.007 12.1072 233.079 14.7276C232.941 15.1414 232.812 15.5551 232.711 15.9689Z" stroke="#282D35" stroke-miterlimit="10" stroke-linejoin="round"/>
<path d="M99.5117 134.892C100.477 131.342 103.622 128.915 105.81 125.964C111.023 118.976 110.701 109.386 109.368 100.78C108.044 92.1647 105.948 83.2552 108.348 74.879C110.821 79.5774 116.705 82.1795 121.845 80.8647C122.599 84.3953 121.045 87.9628 120.521 91.5303C119.547 98.0951 122.277 105.074 127.454 109.22C132.621 113.367 140.032 114.526 146.22 112.154C145.245 112.531 145.576 119.344 145.668 120.327C145.907 122.782 146.753 125.044 147.81 127.288C149.217 130.276 151.828 132.584 154.752 134.119C157.529 135.572 159.092 135.471 162.016 135.967C162.181 135.995 162.347 136.022 162.522 136.059" stroke="#282D35" stroke-miterlimit="10" stroke-linejoin="round"/>
<path d="M187.015 114.231C187.089 114.451 187.181 114.635 187.291 114.755C187.503 114.985 187.88 114.93 188.174 114.81C189.571 114.81 191.098 112.052 191.815 111.16C193.194 109.45 194.573 107.73 195.952 106.02C198.012 103.455 200.062 100.899 202.15 98.3519C204.733 95.189 207.951 92.7432 210.572 89.6171C213.339 86.3347 214.755 81.9581 214.461 77.6735C213.946 77.9677 213.523 78.3998 213.1 78.8136C208.788 83.0982 203.933 86.1508 197.828 87.0519C196.228 87.2817 194.592 86.9231 193.093 86.3531C191.603 85.783 190.05 85.0383 188.772 84.0728C188.707 84.0269 188.624 83.9809 188.56 84.0177C188.505 84.0453 188.496 84.1188 188.487 84.1832C188.431 84.5785 188.385 84.9739 188.33 85.3785C188.275 85.7922 188.22 86.2152 188.165 86.6381C188.036 87.6587 188.064 88.6517 187.907 89.6723C187.797 90.3895 187.659 91.1158 187.595 91.8422C187.346 94.6281 187.153 97.4233 187.015 100.209C186.868 103.004 186.786 105.799 186.74 108.595C186.73 109.56 186.537 112.796 187.015 114.231Z" stroke="#282D35" stroke-miterlimit="10" stroke-linejoin="round"/>
<path d="M111.244 152.083V152.101C111.888 157.59 114.297 162.859 118.048 166.932" stroke="#282D35" stroke-miterlimit="10" stroke-linejoin="round"/>
<path d="M152.306 149.821C152.279 150.124 152.27 150.427 152.27 150.74C152.27 151.163 152.279 151.577 152.306 152C152.619 156.597 154.835 161.056 158.384 164.008" stroke="#282D35" stroke-miterlimit="10" stroke-linejoin="round"/>
<path d="M186.637 139.781C189.036 141.362 189.459 144.645 189.643 147.513C189.763 149.288 189.882 151.053 189.993 152.828" stroke="#282D35" stroke-miterlimit="10" stroke-linejoin="round"/>
<path d="M191.868 204.281C191.804 204.3 191.739 204.318 191.675 204.346C188.374 205.339 185.312 207.113 182.793 209.486" stroke="#282D35" stroke-miterlimit="10" stroke-linejoin="round"/>
<path d="M95.6777 226.062C95.6777 226.062 95.6961 225.98 95.7053 225.943C96.211 223.865 96.8454 221.833 97.5994 219.838" stroke="#282D35" stroke-miterlimit="10" stroke-linejoin="round"/>
<path d="M86.1875 214.79C86.2703 212.712 86.8219 210.643 87.7873 208.795" stroke="#282D35" stroke-miterlimit="10" stroke-linejoin="round"/>
<path d="M105.094 235.862C104.882 233.27 105.029 230.64 105.535 228.084" stroke="#282D35" stroke-miterlimit="10" stroke-linejoin="round"/>
<path d="M115.859 245.152C116.356 243.818 116.852 242.476 117.349 241.134" stroke="#282D35" stroke-miterlimit="10" stroke-linejoin="round"/>
<path d="M32.5117 228.81C33.5231 227.063 34.1391 225.086 34.2955 223.073" stroke="#282D35" stroke-miterlimit="10" stroke-linejoin="round"/>
<path d="M41.373 224.094C42.0167 222.236 42.0902 220.195 41.5845 218.31" stroke="#282D35" stroke-miterlimit="10" stroke-linejoin="round"/>
<path d="M57.1336 215.048C57.3175 213.163 56.9681 211.233 56.1406 209.522" stroke="#282D35" stroke-miterlimit="10" stroke-linejoin="round"/>
<path d="M71.6502 203.049C71.9169 201.928 72.1835 200.788 72.1284 199.638C72.0732 198.489 71.6503 197.303 70.7676 196.567" stroke="#282D35" stroke-miterlimit="10" stroke-linejoin="round"/>
<path d="M119.571 196.53C120.279 200.391 119.59 204.492 117.668 207.912" stroke="#282D35" stroke-miterlimit="10" stroke-linejoin="round"/>
<path d="M131.121 207.646V208.06" stroke="#282D35" stroke-miterlimit="10" stroke-linejoin="round"/>
<path d="M163.193 180.937C166.549 183.99 168.232 188.78 167.515 193.258" stroke="#282D35" stroke-miterlimit="10" stroke-linejoin="round"/>
<path d="M175.318 181.24C175.925 182.757 178.159 183.29 179.392 182.214" stroke="#282D35" stroke-miterlimit="10" stroke-linejoin="round"/>
<path d="M132.006 235.332C132.429 236.849 133.523 238.752 135.012 238.256C136.658 237.704 136.245 234.982 137.66 233.989" stroke="#282D35" stroke-miterlimit="10" stroke-linejoin="round"/>
<path d="M160.773 216.114C160.524 218.339 157.555 219.719 155.697 218.477" stroke="#282D35" stroke-miterlimit="10" stroke-linejoin="round"/>
<path d="M69.041 172.799C67.432 174.877 66.8159 177.682 67.386 180.238" stroke="#282D35" stroke-miterlimit="10" stroke-linejoin="round"/>
<path d="M82.6113 144.791C84.8088 144.836 86.7029 147.043 86.427 149.222" stroke="#282D35" stroke-miterlimit="10" stroke-linejoin="round"/>
</svg>
